<mxfile host="65bd71144e">
    <diagram id="QqyyD-Efn8-9X62u0Yic" name="Page-1">
        <mxGraphModel dx="608" dy="338" grid="1" gridSize="10" guides="1" tooltips="1" connect="1" arrows="1" fold="1" page="1" pageScale="1" pageWidth="850" pageHeight="1100" math="0" shadow="0">
            <root>
                <mxCell id="0"/>
                <mxCell id="1" parent="0"/>
                <mxCell id="5" value="" style="edgeStyle=none;html=1;fontFamily=Helvetica;fontSize=12;fontColor=#ffffff;endArrow=openThin;endFill=0;" parent="1" source="2" target="4" edge="1">
                    <mxGeometry relative="1" as="geometry">
                        <Array as="points">
                            <mxPoint x="420" y="420"/>
                        </Array>
                    </mxGeometry>
                </mxCell>
                <mxCell id="12" value="" style="edgeStyle=none;shape=connector;rounded=1;html=1;labelBackgroundColor=default;strokeColor=default;fontFamily=Helvetica;fontSize=12;fontColor=#ffffff;endArrow=openThin;endFill=0;" parent="1" source="2" target="10" edge="1">
                    <mxGeometry relative="1" as="geometry"/>
                </mxCell>
                <mxCell id="2" value="" style="whiteSpace=wrap;html=1;aspect=fixed;strokeColor=#FFFFFF;fillColor=#3333FF;fontColor=#ffffff;dashed=1;sketch=1;curveFitting=1;jiggle=2;rounded=1;" parent="1" vertex="1">
                    <mxGeometry x="400" y="440" width="40" height="40" as="geometry"/>
                </mxCell>
                <mxCell id="3" value="Start" style="text;html=1;strokeColor=none;fillColor=none;align=center;verticalAlign=middle;whiteSpace=wrap;rounded=0;dashed=1;fontFamily=Helvetica;fontSize=12;fontColor=#ffffff;" parent="1" vertex="1">
                    <mxGeometry x="405" y="450" width="30" height="20" as="geometry"/>
                </mxCell>
                <mxCell id="8" style="edgeStyle=none;html=1;fontFamily=Helvetica;fontSize=12;fontColor=#ffffff;endArrow=openThin;endFill=0;strokeColor=default;" parent="1" source="4" target="7" edge="1">
                    <mxGeometry relative="1" as="geometry"/>
                </mxCell>
                <mxCell id="4" value="" style="whiteSpace=wrap;html=1;aspect=fixed;strokeColor=#FFFFFF;fillColor=#3333FF;fontColor=#ffffff;dashed=1;sketch=1;curveFitting=1;jiggle=2;rounded=1;" parent="1" vertex="1">
                    <mxGeometry x="400" y="360" width="40" height="40" as="geometry"/>
                </mxCell>
                <mxCell id="6" value="Boss" style="text;html=1;strokeColor=none;fillColor=none;align=center;verticalAlign=middle;whiteSpace=wrap;rounded=0;dashed=1;fontFamily=Helvetica;fontSize=12;fontColor=#ffffff;" parent="1" vertex="1">
                    <mxGeometry x="400" y="365" width="40" height="30" as="geometry"/>
                </mxCell>
                <mxCell id="7" value="" style="whiteSpace=wrap;html=1;aspect=fixed;strokeColor=#FFFFFF;fillColor=#3333FF;fontColor=#ffffff;dashed=1;sketch=1;curveFitting=1;jiggle=2;rounded=1;" parent="1" vertex="1">
                    <mxGeometry x="400" y="280" width="40" height="40" as="geometry"/>
                </mxCell>
                <mxCell id="9" value="Exit" style="text;html=1;strokeColor=none;fillColor=none;align=center;verticalAlign=middle;whiteSpace=wrap;rounded=0;dashed=1;fontFamily=Helvetica;fontSize=12;fontColor=#ffffff;" parent="1" vertex="1">
                    <mxGeometry x="400" y="285" width="40" height="30" as="geometry"/>
                </mxCell>
                <mxCell id="10" value="" style="whiteSpace=wrap;html=1;aspect=fixed;strokeColor=#FFFFFF;fillColor=#FF8000;fontColor=#ffffff;dashed=1;sketch=1;curveFitting=1;jiggle=2;rounded=1;" parent="1" vertex="1">
                    <mxGeometry x="400" y="520" width="40" height="40" as="geometry"/>
                </mxCell>
                <mxCell id="21" value="" style="edgeStyle=none;shape=connector;rounded=1;html=1;labelBackgroundColor=default;strokeColor=default;fontFamily=Comic Sans MS;fontSize=5;fontColor=#ffffff;endArrow=openThin;endFill=0;" parent="1" source="13" target="20" edge="1">
                    <mxGeometry relative="1" as="geometry"/>
                </mxCell>
                <mxCell id="22" value="" style="edgeStyle=none;shape=connector;rounded=1;html=1;labelBackgroundColor=default;strokeColor=default;fontFamily=Comic Sans MS;fontSize=5;fontColor=#ffffff;endArrow=openThin;endFill=0;" parent="1" edge="1">
                    <mxGeometry relative="1" as="geometry">
                        <mxPoint x="420" y="560" as="sourcePoint"/>
                        <mxPoint x="420" y="605" as="targetPoint"/>
                    </mxGeometry>
                </mxCell>
                <mxCell id="23" value="" style="edgeStyle=none;shape=connector;rounded=1;html=1;labelBackgroundColor=default;strokeColor=default;fontFamily=Comic Sans MS;fontSize=5;fontColor=#ffffff;endArrow=openThin;endFill=0;" parent="1" source="13" target="16" edge="1">
                    <mxGeometry relative="1" as="geometry"/>
                </mxCell>
                <mxCell id="13" value="Rand&lt;br&gt;Room" style="text;html=1;strokeColor=none;fillColor=none;align=center;verticalAlign=middle;whiteSpace=wrap;rounded=0;dashed=1;fontFamily=Helvetica;fontSize=12;fontColor=#ffffff;" parent="1" vertex="1">
                    <mxGeometry x="400" y="525" width="40" height="30" as="geometry"/>
                </mxCell>
                <mxCell id="14" value="&lt;h6&gt;&lt;span style=&quot;font-weight: normal;&quot;&gt;&lt;font style=&quot;font-size: 5px;&quot;&gt;Hidde door that open whe player shoot it&lt;/font&gt;&lt;/span&gt;&lt;/h6&gt;" style="text;html=1;strokeColor=none;fillColor=none;align=left;verticalAlign=middle;whiteSpace=wrap;rounded=0;dashed=1;fontFamily=Helvetica;fontSize=12;fontColor=#ffffff;" parent="1" vertex="1">
                    <mxGeometry x="420" y="480" width="50" height="30" as="geometry"/>
                </mxCell>
                <mxCell id="30" value="" style="edgeStyle=none;shape=connector;rounded=1;html=1;labelBackgroundColor=default;strokeColor=default;fontFamily=Tahoma;fontSize=3;fontColor=#ffffff;endArrow=openThin;endFill=0;" parent="1" source="15" edge="1">
                    <mxGeometry relative="1" as="geometry">
                        <mxPoint x="340" y="600" as="targetPoint"/>
                    </mxGeometry>
                </mxCell>
                <mxCell id="15" value="" style="whiteSpace=wrap;html=1;aspect=fixed;strokeColor=#FFFFFF;fillColor=#FF8000;fontColor=#ffffff;dashed=1;sketch=1;curveFitting=1;jiggle=2;rounded=1;" parent="1" vertex="1">
                    <mxGeometry x="320" y="520" width="40" height="40" as="geometry"/>
                </mxCell>
                <mxCell id="16" value="Rand&lt;br&gt;Room" style="text;html=1;strokeColor=none;fillColor=none;align=center;verticalAlign=middle;whiteSpace=wrap;rounded=0;dashed=1;fontFamily=Helvetica;fontSize=12;fontColor=#ffffff;" parent="1" vertex="1">
                    <mxGeometry x="320" y="525" width="40" height="30" as="geometry"/>
                </mxCell>
                <mxCell id="19" value="" style="whiteSpace=wrap;html=1;aspect=fixed;strokeColor=#FFFFFF;fillColor=#FF8000;fontColor=#ffffff;dashed=1;sketch=1;curveFitting=1;jiggle=2;rounded=1;" parent="1" vertex="1">
                    <mxGeometry x="480" y="520" width="40" height="40" as="geometry"/>
                </mxCell>
                <mxCell id="20" value="Rand&lt;br&gt;Room" style="text;html=1;strokeColor=none;fillColor=none;align=center;verticalAlign=middle;whiteSpace=wrap;rounded=0;dashed=1;fontFamily=Helvetica;fontSize=12;fontColor=#ffffff;" parent="1" vertex="1">
                    <mxGeometry x="480" y="525" width="40" height="30" as="geometry"/>
                </mxCell>
                <mxCell id="24" value="&lt;font style=&quot;font-size: 17px;&quot;&gt;Level 1&lt;/font&gt;" style="text;html=1;strokeColor=none;fillColor=none;align=center;verticalAlign=middle;whiteSpace=wrap;rounded=0;dashed=1;fontFamily=Comic Sans MS;fontSize=5;fontColor=#ffffff;" parent="1" vertex="1">
                    <mxGeometry x="150" y="285" width="60" height="30" as="geometry"/>
                </mxCell>
                <mxCell id="25" value="" style="whiteSpace=wrap;html=1;aspect=fixed;strokeColor=#FFFFFF;fillColor=#3333FF;fontColor=#ffffff;dashed=1;glass=0;rounded=1;shadow=0;sketch=1;curveFitting=1;jiggle=2;" parent="1" vertex="1">
                    <mxGeometry x="400" y="600" width="40" height="40" as="geometry"/>
                </mxCell>
                <mxCell id="26" value="Reset" style="text;html=1;strokeColor=none;fillColor=none;align=center;verticalAlign=middle;whiteSpace=wrap;rounded=1;dashed=1;fontFamily=Helvetica;fontSize=12;fontColor=#ffffff;glass=0;shadow=0;sketch=1;curveFitting=1;jiggle=2;" parent="1" vertex="1">
                    <mxGeometry x="405" y="610" width="30" height="20" as="geometry"/>
                </mxCell>
                <mxCell id="28" value="&lt;h6 style=&quot;text-align: justify; line-height: 20%;&quot;&gt;&lt;span style=&quot;font-weight: 400;&quot;&gt;&lt;font face=&quot;Tahoma&quot; style=&quot;font-size: 3px;&quot;&gt;Empry room with 1.skeleton on the floor and note &quot;There is no escape&quot; and strange button with note do not&amp;nbsp; click that reset dungeon.&lt;/font&gt;&lt;br&gt;&lt;/span&gt;&lt;/h6&gt;" style="text;html=1;strokeColor=none;fillColor=none;align=left;verticalAlign=middle;whiteSpace=wrap;rounded=0;dashed=1;fontFamily=Helvetica;fontSize=12;fontColor=#ffffff;" parent="1" vertex="1">
                    <mxGeometry x="400" y="640" width="40" height="30" as="geometry"/>
                </mxCell>
                <mxCell id="31" value="" style="edgeStyle=none;shape=connector;rounded=1;html=1;labelBackgroundColor=default;strokeColor=default;fontFamily=Comic Sans MS;fontSize=5;fontColor=#ffffff;endArrow=openThin;endFill=0;" edge="1" parent="1" target="34">
                    <mxGeometry relative="1" as="geometry">
                        <mxPoint x="400" y="460" as="sourcePoint"/>
                    </mxGeometry>
                </mxCell>
                <mxCell id="33" value="" style="whiteSpace=wrap;html=1;aspect=fixed;strokeColor=#FFFFFF;fillColor=#FF8000;fontColor=#ffffff;dashed=1;sketch=1;curveFitting=1;jiggle=2;rounded=1;" vertex="1" parent="1">
                    <mxGeometry x="320" y="440" width="40" height="40" as="geometry"/>
                </mxCell>
                <mxCell id="34" value="Rand&lt;br&gt;Room" style="text;html=1;strokeColor=none;fillColor=none;align=center;verticalAlign=middle;whiteSpace=wrap;rounded=0;dashed=1;fontFamily=Helvetica;fontSize=12;fontColor=#ffffff;" vertex="1" parent="1">
                    <mxGeometry x="320" y="445" width="40" height="30" as="geometry"/>
                </mxCell>
                <mxCell id="35" value="" style="whiteSpace=wrap;html=1;aspect=fixed;strokeColor=#FFFFFF;fillColor=#FF8000;fontColor=#ffffff;dashed=1;sketch=1;curveFitting=1;jiggle=2;rounded=1;" vertex="1" parent="1">
                    <mxGeometry x="480" y="440" width="40" height="40" as="geometry"/>
                </mxCell>
                <mxCell id="36" value="Rand&lt;br&gt;Room" style="text;html=1;strokeColor=none;fillColor=none;align=center;verticalAlign=middle;whiteSpace=wrap;rounded=0;dashed=1;fontFamily=Helvetica;fontSize=12;fontColor=#ffffff;" vertex="1" parent="1">
                    <mxGeometry x="480" y="445" width="40" height="30" as="geometry"/>
                </mxCell>
                <mxCell id="39" value="" style="edgeStyle=none;shape=connector;rounded=1;html=1;labelBackgroundColor=default;strokeColor=default;fontFamily=Comic Sans MS;fontSize=5;fontColor=#ffffff;endArrow=openThin;endFill=0;" edge="1" parent="1">
                    <mxGeometry relative="1" as="geometry">
                        <mxPoint x="440" y="459.8" as="sourcePoint"/>
                        <mxPoint x="480" y="459.8" as="targetPoint"/>
                    </mxGeometry>
                </mxCell>
                <mxCell id="40" value="" style="whiteSpace=wrap;html=1;aspect=fixed;strokeColor=#FFFFFF;fillColor=#FF8000;fontColor=#ffffff;dashed=1;sketch=1;curveFitting=1;jiggle=2;rounded=1;" vertex="1" parent="1">
                    <mxGeometry x="320" y="600" width="40" height="40" as="geometry"/>
                </mxCell>
                <mxCell id="41" value="Rand&lt;br&gt;Room" style="text;html=1;strokeColor=none;fillColor=none;align=center;verticalAlign=middle;whiteSpace=wrap;rounded=0;dashed=1;fontFamily=Helvetica;fontSize=12;fontColor=#ffffff;" vertex="1" parent="1">
                    <mxGeometry x="320" y="605" width="40" height="30" as="geometry"/>
                </mxCell>
                <mxCell id="43" value="" style="edgeStyle=none;shape=connector;rounded=1;html=1;labelBackgroundColor=default;strokeColor=default;fontFamily=Comic Sans MS;fontSize=5;fontColor=#ffffff;endArrow=openThin;endFill=0;" edge="1" parent="1">
                    <mxGeometry relative="1" as="geometry">
                        <mxPoint x="360" y="619.8" as="sourcePoint"/>
                        <mxPoint x="400" y="619.8" as="targetPoint"/>
                    </mxGeometry>
                </mxCell>
                <mxCell id="44" value="" style="whiteSpace=wrap;html=1;aspect=fixed;strokeColor=#FFFFFF;fillColor=#FF8000;fontColor=#ffffff;dashed=1;sketch=1;curveFitting=1;jiggle=2;rounded=1;" vertex="1" parent="1">
                    <mxGeometry x="480" y="600" width="40" height="40" as="geometry"/>
                </mxCell>
                <mxCell id="45" value="Rand&lt;br&gt;Room" style="text;html=1;strokeColor=none;fillColor=none;align=center;verticalAlign=middle;whiteSpace=wrap;rounded=0;dashed=1;fontFamily=Helvetica;fontSize=12;fontColor=#ffffff;" vertex="1" parent="1">
                    <mxGeometry x="480" y="605" width="40" height="30" as="geometry"/>
                </mxCell>
                <mxCell id="46" value="" style="edgeStyle=none;shape=connector;rounded=1;html=1;labelBackgroundColor=default;strokeColor=default;fontFamily=Tahoma;fontSize=3;fontColor=#ffffff;endArrow=openThin;endFill=0;" edge="1" parent="1">
                    <mxGeometry relative="1" as="geometry">
                        <mxPoint x="500" y="600" as="targetPoint"/>
                        <mxPoint x="500" y="560" as="sourcePoint"/>
                    </mxGeometry>
                </mxCell>
                <mxCell id="48" value="" style="edgeStyle=none;shape=connector;rounded=1;html=1;labelBackgroundColor=default;strokeColor=default;fontFamily=Comic Sans MS;fontSize=5;fontColor=#ffffff;endArrow=openThin;endFill=0;" edge="1" parent="1">
                    <mxGeometry relative="1" as="geometry">
                        <mxPoint x="480" y="619.8" as="sourcePoint"/>
                        <mxPoint x="440" y="619.8" as="targetPoint"/>
                    </mxGeometry>
                </mxCell>
            </root>
        </mxGraphModel>
    </diagram>
</mxfile>